<svg xmlns="http://www.w3.org/2000/svg" width="22.907" height="22.912"><path d="m22.51 20.594-4.404-4.403a10.006 10.006 0 0 0 2.067-6.102c0-2.695-1.05-5.229-2.955-7.134A10.022 10.022 0 0 0 10.084 0C7.389 0 4.856 1.05 2.95 2.955c-3.933 3.934-3.933 10.334 0 14.267a10.022 10.022 0 0 0 7.134 2.956c2.236 0 4.355-.733 6.102-2.067l4.403 4.403c.264.264.61.397.956.398a1.407 1.407 0 0 0 .004 0 1.381 1.381 0 0 0 .005 0 1.357 1.357 0 0 0 .956-2.318ZM4.87 15.302c-2.875-2.874-2.874-7.552 0-10.427a7.326 7.326 0 0 1 5.214-2.16 7.326 7.326 0 0 1 5.214 2.16 7.325 7.325 0 0 1 2.16 5.214 7.325 7.325 0 0 1-2.16 5.213 7.325 7.325 0 0 1-5.214 2.16 7.325 7.325 0 0 1-5.214-2.16Z" fill="#0bbbf0" fill-rule="evenodd" data-name="Tracé 222"/></svg>