<svg xmlns="http://www.w3.org/2000/svg" width="19.37" height="20.213" viewBox="299.9 13.895 19.37 20.213"><g data-name="settings-4"><g data-name="Groupe 1374"><g data-name="Groupe 1373"><path d="M303.69 33.265v-2.243a2.942 2.942 0 0 0 2.105-2.81 2.942 2.942 0 0 0-2.105-2.81V14.736a.843.843 0 0 0-.842-.842.842.842 0 0 0-.842.842V25.4a2.942 2.942 0 0 0-2.106 2.81c0 1.331.892 2.446 2.106 2.811v2.243a.842.842 0 1 0 1.684 0Zm-.842-6.316a1.265 1.265 0 0 0-1.264 1.263 1.265 1.265 0 0 0 1.264 1.263c.696 0 1.263-.567 1.263-1.263a1.265 1.265 0 0 0-1.263-1.263Z" fill-rule="evenodd" data-name="Tracé 553"/></g></g><g data-name="Groupe 1376"><g data-name="Groupe 1375"><path d="M317.165 33.265v-2.243a2.942 2.942 0 0 0 2.106-2.81c0-1.33-.892-2.445-2.106-2.81V14.736a.842.842 0 0 0-.842-.842.842.842 0 0 0-.842.842V25.4a2.942 2.942 0 0 0-2.106 2.81 2.942 2.942 0 0 0 2.106 2.811v2.243a.842.842 0 1 0 1.684 0Zm-.842-6.316a1.265 1.265 0 0 0-1.263 1.263 1.265 1.265 0 0 0 1.263 1.263 1.265 1.265 0 0 0 1.263-1.263 1.265 1.265 0 0 0-1.263-1.263Z" fill-rule="evenodd" data-name="Tracé 554"/></g></g><g data-name="Groupe 1378"><g data-name="Groupe 1377"><path d="M310.427 33.265V22.6a2.942 2.942 0 0 0 2.106-2.81 2.942 2.942 0 0 0-2.106-2.81v-2.243a.842.842 0 0 0-.842-.842.842.842 0 0 0-.842.842v2.242a2.942 2.942 0 0 0-2.105 2.81 2.942 2.942 0 0 0 2.105 2.811v10.665c0 .466.377.842.842.842a.842.842 0 0 0 .842-.842Zm-.842-14.738a1.265 1.265 0 0 0-1.263 1.263 1.265 1.265 0 0 0 1.263 1.263c.697 0 1.264-.567 1.264-1.263a1.265 1.265 0 0 0-1.264-1.263Z" fill-rule="evenodd" data-name="Tracé 555"/></g></g></g></svg>