<svg xmlns="http://www.w3.org/2000/svg" width="11.48" height="20.013" viewBox="7.999 5.06 11.48 20.013"><path d="m17.03 24.656-8.613-8.614a1.429 1.429 0 0 1-.392-.738 1.434 1.434 0 0 1 .392-1.286l8.613-8.613a1.436 1.436 0 0 1 1.949.075 1.43 1.43 0 0 1 .404.8c.057.378-.036.775-.285 1.095a1.455 1.455 0 0 1-.044.054l-7.594 7.594 7.594 7.594c.298.296.447.7.422 1.105a1.434 1.434 0 0 1-.104.458c-.22.538-.742.89-1.323.892a1.44 1.44 0 0 1-.008 0 1.436 1.436 0 0 1-1.01-.416Z" fill-rule="evenodd" data-name="Tracé 1"/></svg>