<svg xmlns="http://www.w3.org/2000/svg" width="12.763" height="12.763" viewBox="2.001 2 12.763 12.763"><path d="M12.894 3.869A6.352 6.352 0 0 0 9.64 2.124 6.375 6.375 0 0 0 3.87 3.87a6.352 6.352 0 0 0-1.745 3.256 6.381 6.381 0 0 0 10.77 5.769 6.352 6.352 0 0 0 1.744-3.256 6.377 6.377 0 0 0-1.437-5.44 6.475 6.475 0 0 0-.308-.33Zm-2.876 6.791L8.382 9.024 6.768 10.66a.456.456 0 0 1-.319.133.456.456 0 0 1-.002 0 .456.456 0 0 1-.321-.133.454.454 0 0 1-.125-.234.455.455 0 0 1 .103-.385.462.462 0 0 1 .022-.023L7.739 8.38 6.126 6.768a.456.456 0 0 1 .024-.619.454.454 0 0 1 .254-.128.455.455 0 0 1 .347.09.462.462 0 0 1 .017.014L8.382 7.74l1.613-1.614a.46.46 0 0 1 .237-.131.462.462 0 0 1 .392.097.47.47 0 0 1 .026.023.46.46 0 0 1 .13.237.462.462 0 0 1-.096.391.47.47 0 0 1-.023.026L9.025 8.38l1.636 1.614a.456.456 0 0 1 .144.333.456.456 0 0 1-.144.332.456.456 0 0 1-.321.133.456.456 0 0 1-.003 0 .456.456 0 0 1-.319-.133Z" fill="#bbb" fill-rule="evenodd" data-name="Tracé 563"/></svg>